<?xml version="1.0" encoding="utf-8"?>
<svg version="1.1" id="Layer_1" xmlns="http://www.w3.org/2000/svg" xmlns:xlink="http://www.w3.org/1999/xlink" x="0px" y="0px"
	 viewBox="0 0 128 128" style="enable-background:new 0 0 128 128;" xml:space="preserve">
<style type="text/css">
	.st0{fill:#36A834;}
	.st1{fill:none;stroke:#FFFFFF;stroke-width:10.4859;stroke-miterlimit:10;}
	.st2{fill:#FFFFFF;}
	.st3{fill:none;stroke:#FFFFFF;stroke-width:2.6215;stroke-miterlimit:10;}
</style>
<path class="st0" d="M128,0H0v128h128V0z"/>
<path class="st1" d="M126.1,1.8H1.9v124.3h124.3V1.8z"/>
<path class="st2" d="M56.6,80V28.3h8.7l15.8,28.3L97,28.3h7.9v78.6h-7.7V43.8L83.5,68.3l-4.2-0.1L64.7,43v37H56.6z"/>
<path class="st2" d="M47.8,77.2v-22c0-6.6-5.4-12-12-12s-12,5.4-12,12v22c0,0.8,0.6,1.3,1.3,1.3c0.6,0,1.3-0.5,1.3-1.3v-22
	c0-5.2,4.2-9.4,9.4-9.4c5.2,0,9.4,4.2,9.4,9.4v22c0,0.8,0.6,1.3,1.3,1.3C47.1,78.5,47.8,78,47.8,77.2z"/>
<path class="st3" d="M56.6,80V28.3h8.7l15.8,28.3L97,28.3h7.9v78.6h-7.7V43.8L83.5,68.3l-4.2-0.1L64.7,43v37H56.6z"/>
<path class="st3" d="M47.8,77.2v-22c0-6.6-5.4-12-12-12s-12,5.4-12,12v22c0,0.8,0.6,1.3,1.3,1.3c0.6,0,1.3-0.5,1.3-1.3v-22
	c0-5.2,4.2-9.4,9.4-9.4c5.2,0,9.4,4.2,9.4,9.4v22c0,0.8,0.6,1.3,1.3,1.3C47.1,78.5,47.8,78,47.8,77.2z"/>
</svg>
